<?xml version="1.0" standalone="no"?><!DOCTYPE svg PUBLIC "-//W3C//DTD SVG 1.1//EN" "http://www.w3.org/Graphics/SVG/1.1/DTD/svg11.dtd"><svg t="1534996220150" class="icon" style="" viewBox="0 0 1024 1024" version="1.1" xmlns="http://www.w3.org/2000/svg" p-id="1829" xmlns:xlink="http://www.w3.org/1999/xlink" width="64" height="64"><defs><style type="text/css"></style></defs><path d="M435.573353 791.280728l426.638867 0c40.627303 0 73.579809-32.158421 73.579809-71.839165l0 0L935.792029 298.55777c0-39.70735-32.952506-71.839165-73.579809-71.839165L144.936997 226.718605c-40.627303 0-73.582879 32.131815-73.582879 71.839165l0 420.885839c0 39.677675 32.955576 71.836095 73.582879 71.836095l145.827273 0-28.499078 98.500385c3.937682 18.192338 10.337439 24.227798 26.302039 10.793834M761.204735 512.927115 761.204735 512.927115 761.204735 512.927115c0 31.518854-26.14752 57.075927-58.482973 57.075927-32.286334 0-58.433854-25.557072-58.433854-57.075927 0-31.521924 26.14752-57.131185 58.433854-57.131185C735.056192 455.79593 761.204735 481.405191 761.204735 512.927115L761.204735 512.927115zM550.70144 512.927115 550.70144 512.927115 550.70144 512.927115c0 31.518854-26.197662 57.075927-58.487066 57.075927-32.28838 0-58.486042-25.557072-58.486042-57.075927 0-31.521924 26.199709-57.131185 58.486042-57.131185C524.503778 455.79593 550.70144 481.405191 550.70144 512.927115L550.70144 512.927115zM340.195076 512.927115 340.195076 512.927115 340.195076 512.927115c0 31.518854-26.197662 57.075927-58.536184 57.075927-32.237215 0-58.433854-25.557072-58.433854-57.075927 0-31.521924 26.197662-57.131185 58.433854-57.131185C313.997414 455.79593 340.195076 481.405191 340.195076 512.927115L340.195076 512.927115zM340.195076 512.927115" p-id="1830"></path></svg>